<?xml version="1.0" standalone="no"?>
<!DOCTYPE svg PUBLIC "-//W3C//DTD SVG 20010904//EN"
 "http://www.w3.org/TR/2001/REC-SVG-20010904/DTD/svg10.dtd">
<svg version="1.0" xmlns="http://www.w3.org/2000/svg"
 width="266.000000pt" height="120.000000pt" viewBox="0 0 266.000000 120.000000"
 preserveAspectRatio="xMidYMid meet">

<g transform="translate(0.000000,120.000000) scale(0.100000,-0.100000)"
fill="#000000" stroke="none">
<path d="M688 1123 c7 -3 16 -2 19 1 4 3 -2 6 -13 5 -11 0 -14 -3 -6 -6z"/>
<path d="M530 1090 c-190 -51 -347 -118 -457 -197 l-63 -44 0 -249 0 -249 63
-44 c78 -56 145 -90 273 -138 113 -42 300 -93 318 -85 6 2 2 5 -8 5 -11 1 -74
19 -140 42 -172 58 -322 137 -398 207 l-28 26 0 236 0 236 27 26 c91 83 273
172 478 233 111 33 63 30 -65 -5z"/>
<path d="M2066 1095 c177 -52 331 -122 440 -201 l64 -45 0 -249 0 -249 -64
-45 c-109 -79 -263 -149 -440 -201 -45 -13 -72 -24 -61 -24 27 -1 240 60 330
94 88 33 225 105 276 146 l39 31 0 248 0 248 -39 31 c-51 41 -188 113 -276
146 -90 34 -303 95 -330 94 -11 0 16 -11 61 -24z"/>
<path d="M1971 986 c-8 -9 -11 -19 -7 -23 9 -9 29 13 24 27 -2 8 -8 7 -17 -4z"/>
<path d="M1918 959 c-35 -37 -13 -83 30 -63 15 7 14 8 -5 11 -13 3 -23 11 -23
19 0 11 4 12 19 3 20 -13 51 -6 51 12 0 6 -9 9 -20 6 -15 -4 -20 0 -20 14 0
24 -10 23 -32 -2z"/>
<path d="M278 925 c-75 -41 -55 -182 44 -307 21 -27 27 -42 20 -51 -5 -6 -18
-44 -27 -83 -15 -62 -15 -76 -3 -100 12 -27 18 -29 80 -32 71 -3 108 9 108 33
0 20 6 19 40 -7 19 -13 49 -23 84 -26 46 -4 63 0 102 22 l46 26 31 -26 c27
-22 37 -25 72 -19 22 4 51 6 65 4 21 -2 308 -3 405 -1 17 0 215 -1 440 -4 239
-2 421 0 437 5 17 6 39 6 61 -1 46 -14 104 -2 133 27 32 32 35 115 5 115 -15
0 -19 10 -24 61 -4 49 -11 67 -31 88 -24 23 -36 26 -110 29 -63 3 -91 0 -115
-12 l-31 -17 0 71 0 70 -54 0 c-29 0 -74 -3 -100 -6 l-46 -7 0 -43 c0 -24 5
-44 13 -47 6 -3 -2 -6 -18 -6 -28 -1 -72 -23 -86 -44 -4 -5 -18 3 -33 18 -24
24 -32 26 -79 21 -29 -3 -56 -6 -62 -6 -5 0 -22 2 -37 6 -42 10 -76 -3 -93
-35 l-15 -29 -35 35 -35 35 -89 -4 c-70 -2 -93 -7 -110 -22 -21 -19 -21 -19
-21 18 0 36 0 36 24 21 23 -15 24 -14 40 19 24 52 20 90 -14 129 -56 64 -213
103 -379 95 -79 -4 -110 -11 -173 -37 -79 -33 -170 -91 -225 -143 l-32 -31
-20 34 c-12 19 -21 47 -21 62 0 39 -25 93 -48 106 -27 15 -51 13 -84 -4z m817
-21 c131 -27 199 -90 174 -162 -12 -36 -24 -39 -57 -16 l-22 15 0 -125 0 -126
21 21 c16 16 18 23 9 34 -20 24 -8 76 23 99 41 30 163 30 204 0 26 -19 28 -27
31 -93 3 -63 5 -71 22 -71 18 0 20 7 20 74 0 69 2 76 26 95 31 24 53 26 79 7
15 -11 22 -11 44 0 14 8 34 14 44 14 31 0 76 -29 83 -54 6 -24 6 -24 38 11 26
28 39 35 74 36 31 2 42 6 42 18 0 9 -7 19 -15 23 -9 3 -15 18 -15 35 l0 30 85
3 85 3 0 -140 c0 -129 1 -138 16 -123 15 14 15 21 4 47 -11 26 -10 35 5 57 33
50 137 70 210 40 44 -19 55 -42 55 -115 0 -54 2 -61 20 -61 28 0 28 -62 -1
-91 -18 -18 -29 -20 -77 -15 -63 6 -73 6 -152 1 -129 -9 -289 -6 -309 4 -14 8
-21 8 -21 1 0 -14 -450 -13 -467 2 -9 7 -21 7 -40 -1 -23 -9 -328 -10 -403 -1
-8 1 -27 -2 -42 -5 -42 -11 -77 2 -98 37 -16 26 -20 29 -26 15 -11 -30 -72
-59 -123 -60 -57 -1 -106 25 -138 73 l-23 33 0 -50 c0 -58 -6 -63 -80 -63 -85
0 -100 44 -56 166 l25 68 -36 39 c-77 86 -106 205 -62 261 25 32 64 34 96 4
13 -12 23 -33 23 -47 0 -38 18 -93 39 -120 l18 -24 74 60 c188 151 336 187
574 137z"/>
<path d="M298 890 c-47 -28 -27 -134 44 -227 50 -66 55 -81 38 -113 -17 -31
-39 -130 -33 -145 3 -11 21 -15 58 -15 l52 0 5 70 c10 132 102 271 220 331
135 69 313 63 483 -15 60 -28 77 -32 81 -21 17 43 -41 96 -131 120 -84 23
-237 30 -309 15 -83 -17 -206 -84 -280 -152 -35 -32 -68 -58 -73 -58 -30 0
-83 93 -83 145 0 22 -8 43 -20 55 -22 22 -28 23 -52 10z"/>
<path d="M820 809 c-94 -16 -208 -78 -244 -134 -16 -24 -16 -24 14 -13 42 14
109 2 145 -26 l29 -24 27 29 c32 34 57 36 93 8 24 -19 26 -27 28 -97 l1 -77 6
78 c5 67 10 82 30 98 28 23 49 24 79 3 21 -15 22 -14 22 14 0 17 -6 32 -15 36
-9 3 -15 18 -15 35 0 29 2 30 48 33 l47 3 -70 17 c-94 23 -159 27 -225 17z
m159 -15 c30 -6 31 -9 31 -55 0 -37 4 -49 15 -49 8 0 15 -3 15 -8 0 -4 -19 -6
-43 -4 -33 3 -47 -1 -61 -16 -17 -20 -18 -20 -37 -1 -26 26 -88 25 -117 -1
l-21 -20 -33 20 c-20 12 -51 20 -77 20 l-44 0 19 21 c65 72 234 116 353 93z"/>
<path d="M1075 741 c-24 -5 -26 -8 -12 -13 15 -7 17 -24 17 -158 0 -125 -3
-152 -15 -156 -35 -14 -10 -24 60 -24 43 0 75 4 75 10 0 6 -7 10 -15 10 -13 0
-15 26 -15 170 l0 170 -32 -1 c-18 -1 -46 -4 -63 -8z"/>
<path d="M1975 741 c-24 -5 -26 -8 -12 -13 13 -6 17 -19 17 -64 0 -55 -1 -56
-18 -41 -48 43 -121 6 -142 -72 -28 -106 60 -200 138 -145 20 14 22 14 22 0 0
-12 10 -16 43 -15 23 0 51 4 61 8 18 7 18 8 3 14 -15 6 -17 26 -17 172 l0 165
-32 -1 c-18 -1 -46 -4 -63 -8z m-5 -150 c18 -34 12 -126 -9 -152 -16 -20 -22
-22 -33 -11 -14 14 -18 134 -6 165 10 23 35 22 48 -2z"/>
<path d="M559 617 c-104 -70 -46 -227 84 -227 40 0 96 35 114 70 29 57 7 131
-47 164 -41 24 -110 21 -151 -7z m100 -1 c8 -9 11 -47 9 -107 -3 -93 -3 -94
-29 -97 -32 -4 -39 15 -39 105 0 96 26 139 59 99z"/>
<path d="M807 634 c-4 -4 -7 -51 -7 -105 0 -94 1 -98 27 -119 31 -24 68 -20
94 10 16 18 17 18 36 -8 18 -24 22 -26 47 -14 l27 12 -3 112 -3 113 -31 3
c-39 4 -46 -9 -53 -107 -5 -54 -10 -77 -23 -85 -9 -5 -20 -7 -24 -3 -4 4 -10
49 -13 99 l-6 93 -30 3 c-17 2 -34 0 -38 -4z"/>
<path d="M1263 628 c-42 -20 -40 -73 3 -84 35 -9 56 13 49 48 -5 20 -2 30 9
34 24 9 47 -15 44 -45 -2 -21 -14 -30 -64 -51 -81 -34 -84 -36 -84 -75 0 -24
7 -39 22 -49 29 -21 46 -20 89 3 35 19 36 19 52 0 30 -35 118 -18 116 23 0 13
-3 17 -6 11 -2 -7 -11 -13 -19 -13 -11 0 -14 18 -14 85 0 112 -12 125 -107
124 -38 0 -78 -5 -90 -11z m103 -164 c-4 -15 -14 -24 -27 -24 -39 0 -37 69 3
87 20 9 23 7 26 -15 2 -13 1 -35 -2 -48z"/>
<path d="M1550 621 c-5 -11 -10 -63 -10 -115 0 -79 -3 -96 -15 -96 -8 0 -15
-4 -15 -10 0 -6 32 -10 77 -10 74 0 76 1 59 19 -14 15 -17 35 -14 109 3 98 -7
122 -48 122 -13 0 -28 -9 -34 -19z"/>
<path d="M1662 624 c-28 -20 -28 -34 1 -31 21 2 22 -1 25 -90 2 -60 -1 -93 -8
-93 -5 0 -10 -4 -10 -10 0 -6 30 -10 70 -10 65 0 90 10 55 24 -12 4 -15 24
-15 93 0 105 -13 133 -63 133 -18 0 -43 -7 -55 -16z"/>
<path d="M2152 624 c-43 -30 -18 -93 33 -80 21 5 25 12 25 42 0 42 25 57 47
28 27 -37 12 -56 -64 -87 -76 -30 -90 -47 -79 -93 12 -45 86 -55 128 -17 15
13 19 12 38 -7 18 -18 30 -21 57 -17 41 7 63 23 63 45 0 12 -3 13 -12 4 -22
-22 -26 -12 -29 74 -4 76 -7 88 -28 105 -30 25 -145 27 -179 3z m118 -108 c0
-42 -18 -76 -40 -76 -30 0 -28 63 2 84 31 22 38 20 38 -8z"/>
<path d="M1872 893 c2 -22 9 -29 31 -31 15 -2 27 1 27 7 0 6 -9 11 -20 11 -13
0 -20 7 -20 20 0 11 -5 20 -11 20 -6 0 -9 -12 -7 -27z"/>
<path d="M1826 876 c-35 -29 -29 -66 10 -66 13 0 24 4 24 9 0 5 10 12 23 15
20 6 21 7 4 17 -9 5 -21 8 -26 5 -4 -3 -6 6 -3 19 5 30 4 30 -32 1z m18 -31
c3 -9 0 -15 -9 -15 -9 0 -12 6 -9 15 4 8 7 15 9 15 2 0 5 -7 9 -15z"/>
<path d="M1770 840 c0 -5 -3 -9 -7 -9 -26 4 -34 -3 -31 -28 2 -20 9 -29 26
-31 12 -2 22 1 22 7 0 5 10 12 23 14 l22 4 -21 8 c-15 5 -20 13 -17 26 3 10 0
19 -6 19 -6 0 -11 -4 -11 -10z m0 -40 c0 -5 -7 -10 -16 -10 -8 0 -12 5 -9 10
3 6 10 10 16 10 5 0 9 -4 9 -10z"/>
<path d="M1697 813 c-13 -12 -7 -51 9 -57 23 -9 34 -7 34 4 0 6 -10 15 -22 20
-13 5 -17 9 -10 9 6 1 12 8 12 16 0 16 -12 20 -23 8z"/>
<path d="M1654 796 c-11 -28 1 -51 26 -54 l25 -3 -24 21 c-13 11 -18 20 -12
20 6 0 11 7 11 15 0 19 -19 20 -26 1z"/>
<path d="M1617 793 c-13 -13 -7 -51 9 -57 25 -9 32 4 11 19 -12 8 -14 15 -8
20 6 3 11 10 11 16 0 10 -14 12 -23 2z"/>
<path d="M1340 761 c50 -41 189 -51 235 -17 16 11 7 12 -58 8 -67 -4 -118 3
-183 24 -14 4 -13 1 6 -15z"/>
<path d="M826 281 c-14 -5 -16 -10 -8 -15 7 -4 12 -29 12 -56 0 -27 5 -52 11
-55 18 -11 59 4 60 23 0 13 2 12 9 -5 7 -17 16 -22 40 -20 25 2 30 6 30 29 0
58 -26 76 -53 38 -13 -19 -15 -19 -28 -4 -8 10 -14 29 -14 43 0 28 -23 37 -59
22z m54 -86 c0 -8 -4 -17 -10 -20 -6 -4 -10 5 -10 20 0 15 4 24 10 20 6 -3 10
-12 10 -20z m67 -7 c-3 -8 -6 -5 -6 6 -1 11 2 17 5 13 3 -3 4 -12 1 -19z"/>
<path d="M1000 221 c0 -41 4 -71 10 -71 6 0 10 5 10 10 0 6 11 8 25 4 28 -7
35 10 8 20 -12 5 -14 9 -5 18 7 7 12 21 12 32 0 18 -1 19 -20 1 -20 -18 -20
-17 -20 13 0 17 -4 34 -10 37 -6 4 -10 -20 -10 -64z"/>
<path d="M1403 278 c-4 -7 -9 -24 -10 -38 -1 -14 -4 -38 -5 -55 -3 -25 1 -31
22 -34 14 -1 28 -8 32 -14 9 -15 14 -8 23 31 6 29 4 34 -14 39 -24 6 -25 8
-11 33 19 35 -16 70 -37 38z m13 -105 c-10 -10 -19 5 -10 18 6 11 8 11 12 0 2
-7 1 -15 -2 -18z"/>
<path d="M1562 281 c-17 -11 -30 -69 -22 -101 5 -21 12 -25 40 -25 20 0 35 6
38 14 3 10 -2 12 -21 8 -19 -5 -26 -3 -30 13 -9 33 7 75 27 72 11 -2 16 2 14
10 -6 16 -29 21 -46 9z"/>
<path d="M1718 284 c-5 -4 -8 -36 -8 -71 0 -49 3 -63 15 -63 8 0 15 5 15 10 0
6 11 8 25 4 15 -4 25 -2 25 5 0 6 -7 11 -15 11 -18 0 -18 5 -4 32 8 14 8 23 0
31 -7 7 -12 5 -17 -8 -6 -15 -10 -11 -18 19 -6 21 -14 34 -18 30z"/>
<path d="M1190 240 c-8 -5 -18 -6 -23 -3 -4 3 -7 -15 -5 -39 3 -50 20 -54 30
-7 3 17 11 35 18 39 7 4 8 10 3 13 -5 3 -15 2 -23 -3z"/>
<path d="M1088 215 c-8 -19 -9 -31 -1 -43 11 -19 53 -29 53 -13 0 6 -8 11 -17
11 -14 0 -13 3 6 21 26 24 23 43 -7 47 -16 2 -25 -4 -34 -23z"/>
<path d="M1233 224 c-9 -25 10 -69 30 -68 10 1 17 -5 17 -17 0 -10 -7 -19 -15
-19 -8 0 -15 -5 -15 -11 0 -6 12 -9 28 -7 26 3 27 5 27 67 0 72 -16 91 -32 39
l-11 -33 -1 33 c-1 34 -17 43 -28 16z"/>
<path d="M1647 222 c-10 -10 -17 -30 -17 -45 0 -24 3 -26 36 -25 34 1 36 3 30
31 -3 16 -6 36 -6 43 0 20 -24 17 -43 -4z"/>
<path d="M1812 228 c-28 -28 -7 -78 33 -78 18 1 18 2 4 13 -15 12 -15 14 2 36
10 13 16 27 13 32 -8 13 -38 11 -52 -3z"/>
<path d="M688 73 c7 -3 16 -2 19 1 4 3 -2 6 -13 5 -11 0 -14 -3 -6 -6z"/>
<path d="M1958 73 c7 -3 16 -2 19 1 4 3 -2 6 -13 5 -11 0 -14 -3 -6 -6z"/>
</g>
</svg>
